<svg xmlns="http://www.w3.org/2000/svg" version="1.1" xmlns:xlink="http://www.w3.org/1999/xlink" xmlns:svgjs="http://svgjs.dev/svgjs" width="1500" height="253" viewBox="0 0 1500 253"><g transform="matrix(1,0,0,1,-0.9090909090909918,-0.8106482075369144)"><svg viewBox="0 0 396 67" data-background-color="#f9f9f9" preserveAspectRatio="xMidYMid meet" height="253" width="1500" xmlns="http://www.w3.org/2000/svg" xmlns:xlink="http://www.w3.org/1999/xlink"><g id="tight-bounds" transform="matrix(1,0,0,1,0.2400000000000091,0.2146775885572083)"><svg viewBox="0 0 395.52 66.5706448228856" height="66.5706448228856" width="395.52"><g><svg viewBox="0 0 395.52 66.5706448228856" height="66.5706448228856" width="395.52"><g transform="matrix(1,0,0,1,0,45.108538976787884)"><svg viewBox="0 0 395.52 21.462105846097717" height="21.462105846097717" width="395.52"><g id="textblocktransform"><svg viewBox="0 0 395.52 21.462105846097717" height="21.462105846097717" width="395.52" id="textblock"><g><svg viewBox="0 0 395.52 21.462105846097717" height="21.462105846097717" width="395.52"><g transform="matrix(1,0,0,1,0,0)"><svg width="395.52" viewBox="3.9 -39.9 742.6190322580645 40.3" height="21.462105846097717" data-palette-color="#03045e"><path d="M9.8-35L9.8-14.35Q9.8-9.8 12.3-7.2 14.8-4.6 19.05-4.6L19.05-4.6Q23.25-4.6 25.7-7.18 28.15-9.75 28.15-14.35L28.15-14.35 28.15-35 34.05-35 34.05-14.35Q34.05-9.8 32.25-6.48 30.45-3.15 27.08-1.38 23.7 0.4 19.05 0.4L19.05 0.4Q14.35 0.4 10.95-1.38 7.55-3.15 5.73-6.48 3.9-9.8 3.9-14.35L3.9-14.35 3.9-35 9.8-35ZM61.55 0L61.55-15Q61.55-18.15 59.9-19.93 58.25-21.7 55.3-21.7L55.3-21.7Q51.85-21.6 49.87-19.15 47.9-16.7 47.9-13.1L47.9-13.1 46.3-13.1Q46.3-18 47.67-21 49.05-24 51.57-25.38 54.1-26.75 57.55-26.75L57.55-26.75Q60.6-26.75 62.77-25.5 64.95-24.25 66.12-21.98 67.3-19.7 67.3-16.5L67.3-16.5 67.3 0 61.55 0ZM80.9 0L80.9-15Q80.9-18.15 79.22-19.93 77.55-21.7 74.6-21.7L74.6-21.7Q71.2-21.6 69.25-19.15 67.3-16.7 67.3-13.1L67.3-13.1 65.65-13.1Q65.65-18 67.02-21 68.4-24 70.92-25.38 73.45-26.75 76.9-26.75L76.9-26.75Q79.95-26.75 82.12-25.5 84.3-24.25 85.47-21.98 86.65-19.7 86.65-16.5L86.65-16.5 86.65 0 80.9 0ZM42.2 0L42.2-26.55 47.9-26.55 47.9 0 42.2 0ZM96.5-15.2L112.75-15.2Q112.65-17.45 111.72-19.03 110.8-20.6 109.15-21.48 107.5-22.35 105.35-22.35L105.35-22.35Q102.95-22.35 101.17-21.25 99.4-20.15 98.4-18.18 97.4-16.2 97.4-13.55L97.4-13.55Q97.4-10.7 98.47-8.6 99.55-6.5 101.47-5.35 103.4-4.2 105.9-4.2L105.9-4.2Q110.35-4.2 113.4-7.35L113.4-7.35 116.45-4.3Q114.5-2.15 111.7-0.98 108.9 0.2 105.45 0.2L105.45 0.2Q101.35 0.2 98.3-1.5 95.25-3.2 93.55-6.23 91.85-9.25 91.85-13.25L91.85-13.25Q91.85-17.25 93.55-20.28 95.25-23.3 98.3-25 101.35-26.7 105.3-26.75L105.3-26.75Q110-26.75 112.85-24.83 115.7-22.9 116.9-19.4 118.1-15.9 117.75-11.1L117.75-11.1 96.5-11.1 96.5-15.2ZM140.39-11.85L132.44-11.85Q129.64-11.85 128.29-11 126.94-10.15 126.94-8.2L126.94-8.2Q126.94-6.35 128.32-5.25 129.69-4.15 132.09-4.15L132.09-4.15Q134.24-4.15 135.94-4.9 137.64-5.65 138.64-6.93 139.64-8.2 139.69-9.8L139.69-9.8 140.79-4.95Q139.54-2.35 136.99-1.05 134.44 0.25 130.89 0.25L130.89 0.25Q128.04 0.25 125.94-0.85 123.84-1.95 122.69-3.83 121.54-5.7 121.54-8L121.54-8Q121.54-11.6 124.17-13.75 126.79-15.9 131.59-15.95L131.59-15.95 140.39-15.95 140.39-11.85ZM139.69 0L139.64-16.85Q139.64-19.45 138.04-20.9 136.44-22.35 133.29-22.35L133.29-22.35Q131.39-22.35 129.42-21.65 127.44-20.95 125.44-19.6L125.44-19.6 123.09-23.3Q124.94-24.45 126.59-25.2 128.24-25.95 130.12-26.35 131.99-26.75 134.54-26.75L134.54-26.75Q139.69-26.75 142.47-24.28 145.24-21.8 145.29-17.45L145.29-17.45 145.34 0 139.69 0ZM133.99-39.9L133.99-39.9Q135.54-39.9 136.79-39.15 138.04-38.4 138.79-37.18 139.54-35.95 139.54-34.45L139.54-34.45Q139.54-32.95 138.79-31.7 138.04-30.45 136.79-29.7 135.54-28.95 133.99-28.95L133.99-28.95Q132.49-28.95 131.22-29.7 129.94-30.45 129.19-31.7 128.44-32.95 128.44-34.45L128.44-34.45Q128.44-35.95 129.19-37.18 129.94-38.4 131.22-39.15 132.49-39.9 133.99-39.9ZM133.99-36.95L133.99-36.95Q132.94-36.95 132.17-36.2 131.39-35.45 131.39-34.45L131.39-34.45Q131.39-33.4 132.17-32.65 132.94-31.9 133.99-31.9L133.99-31.9Q135.04-31.9 135.82-32.65 136.59-33.4 136.59-34.45L136.59-34.45Q136.59-35.45 135.82-36.2 135.04-36.95 133.99-36.95ZM195.69-29.95L192.24-25.9Q190.34-28 187.74-29.2 185.14-30.4 182.49-30.4L182.49-30.4Q179.89-30.4 177.61-29.43 175.34-28.45 173.61-26.7 171.89-24.95 170.94-22.63 169.99-20.3 169.99-17.6L169.99-17.6Q169.99-14.95 170.94-12.63 171.89-10.3 173.61-8.55 175.34-6.8 177.61-5.8 179.89-4.8 182.49-4.8L182.49-4.8Q185.14-4.8 187.69-5.93 190.24-7.05 192.24-9L192.24-9 195.74-5.35Q193.99-3.6 191.76-2.3 189.54-1 187.11-0.3 184.69 0.4 182.19 0.4L182.19 0.4Q178.34 0.4 175.04-0.98 171.74-2.35 169.26-4.8 166.79-7.25 165.39-10.53 163.99-13.8 163.99-17.55L163.99-17.55Q163.99-21.3 165.39-24.53 166.79-27.75 169.31-30.2 171.84-32.65 175.16-34 178.49-35.35 182.39-35.35L182.39-35.35Q184.89-35.35 187.29-34.7 189.69-34.05 191.84-32.85 193.99-31.65 195.69-29.95L195.69-29.95ZM221.39 0L221.39-15Q221.39-18.1 219.69-19.88 217.99-21.65 214.99-21.65L214.99-21.65Q211.44-21.6 209.41-19.15 207.39-16.7 207.39-13.05L207.39-13.05 205.79-13.05Q205.79-18 207.19-21 208.59-24 211.16-25.38 213.74-26.75 217.24-26.75L217.24-26.75Q220.34-26.75 222.56-25.5 224.79-24.25 225.96-21.98 227.14-19.7 227.14-16.5L227.14-16.5 227.14 0 221.39 0ZM201.64 0L201.64-37.1 207.39-37.1 207.39 0 201.64 0ZM251.48-11.85L243.53-11.85Q240.73-11.85 239.38-11 238.03-10.15 238.03-8.2L238.03-8.2Q238.03-6.35 239.41-5.25 240.78-4.15 243.18-4.15L243.18-4.15Q245.33-4.15 247.03-4.9 248.73-5.65 249.73-6.93 250.73-8.2 250.78-9.8L250.78-9.8 251.88-4.95Q250.63-2.35 248.08-1.05 245.53 0.25 241.98 0.25L241.98 0.25Q239.13 0.25 237.03-0.85 234.93-1.95 233.78-3.83 232.63-5.7 232.63-8L232.63-8Q232.63-11.6 235.26-13.75 237.88-15.9 242.68-15.95L242.68-15.95 251.48-15.95 251.48-11.85ZM250.78 0L250.73-16.85Q250.73-19.45 249.13-20.9 247.53-22.35 244.38-22.35L244.38-22.35Q242.48-22.35 240.51-21.65 238.53-20.95 236.53-19.6L236.53-19.6 234.18-23.3Q236.03-24.45 237.68-25.2 239.33-25.95 241.21-26.35 243.08-26.75 245.63-26.75L245.63-26.75Q250.78-26.75 253.56-24.28 256.33-21.8 256.38-17.45L256.38-17.45 256.43 0 250.78 0ZM283.48 0L283.48-15Q283.48-18.15 281.83-19.93 280.18-21.7 277.23-21.7L277.23-21.7Q273.78-21.6 271.81-19.15 269.83-16.7 269.83-13.1L269.83-13.1 268.23-13.1Q268.23-18 269.61-21 270.98-24 273.51-25.38 276.03-26.75 279.48-26.75L279.48-26.75Q282.53-26.75 284.71-25.5 286.88-24.25 288.06-21.98 289.23-19.7 289.23-16.5L289.23-16.5 289.23 0 283.48 0ZM302.83 0L302.83-15Q302.83-18.15 301.16-19.93 299.48-21.7 296.53-21.7L296.53-21.7Q293.13-21.6 291.18-19.15 289.23-16.7 289.23-13.1L289.23-13.1 287.58-13.1Q287.58-18 288.96-21 290.33-24 292.86-25.38 295.38-26.75 298.83-26.75L298.83-26.75Q301.88-26.75 304.06-25.5 306.23-24.25 307.41-21.98 308.58-19.7 308.58-16.5L308.58-16.5 308.58 0 302.83 0ZM264.13 0L264.13-26.55 269.83-26.55 269.83 0 264.13 0ZM331.58-26.75L331.58-26.75Q335.38-26.75 338.23-25.05 341.08-23.35 342.68-20.3 344.28-17.25 344.28-13.2L344.28-13.2Q344.28-9.25 342.7-6.23 341.13-3.2 338.3-1.5 335.48 0.2 331.68 0.2L331.68 0.2Q328.03 0.2 325.45-1.4 322.88-3 321.53-6.03 320.18-9.05 320.18-13.2L320.18-13.2Q320.18-17.5 321.53-20.53 322.88-23.55 325.45-25.15 328.03-26.75 331.58-26.75ZM330.38-22.2L330.38-22.2Q328.03-22.2 326.18-21.05 324.33-19.9 323.3-17.93 322.28-15.95 322.28-13.35L322.28-13.35Q322.28-10.75 323.3-8.72 324.33-6.7 326.18-5.58 328.03-4.45 330.38-4.45L330.38-4.45Q332.78-4.45 334.6-5.6 336.43-6.75 337.45-8.75 338.48-10.75 338.48-13.35L338.48-13.35Q338.48-15.9 337.45-17.9 336.43-19.9 334.6-21.05 332.78-22.2 330.38-22.2ZM316.53 0L316.53-37.1 322.28-37.1 322.28 0 316.53 0ZM352.43-15.2L368.68-15.2Q368.58-17.45 367.65-19.03 366.73-20.6 365.08-21.48 363.43-22.35 361.28-22.35L361.28-22.35Q358.88-22.35 357.1-21.25 355.33-20.15 354.33-18.18 353.33-16.2 353.33-13.55L353.33-13.55Q353.33-10.7 354.4-8.6 355.48-6.5 357.4-5.35 359.33-4.2 361.83-4.2L361.83-4.2Q366.28-4.2 369.33-7.35L369.33-7.35 372.38-4.3Q370.43-2.15 367.63-0.98 364.83 0.2 361.38 0.2L361.38 0.2Q357.28 0.2 354.23-1.5 351.18-3.2 349.48-6.23 347.78-9.25 347.78-13.25L347.78-13.25Q347.78-17.25 349.48-20.28 351.18-23.3 354.23-25 357.28-26.7 361.23-26.75L361.23-26.75Q365.93-26.75 368.78-24.83 371.63-22.9 372.83-19.4 374.03-15.9 373.68-11.1L373.68-11.1 352.43-11.1 352.43-15.2ZM394.62-26.75L394.62-21.55Q391.77-21.7 389.7-20.58 387.62-19.45 386.5-17.45 385.37-15.45 385.37-12.85L385.37-12.85 383.77-13.05Q383.77-17.5 385.07-20.55 386.37-23.6 388.82-25.18 391.27-26.75 394.62-26.75L394.62-26.75ZM379.67 0L379.67-26.55 385.42-26.55 385.42 0 379.67 0ZM424.27-26.75L424.27-26.75Q428.37-26.75 431.49-25.05 434.62-23.35 436.37-20.33 438.12-17.3 438.12-13.3L438.12-13.3Q438.12-9.3 436.37-6.25 434.62-3.2 431.49-1.5 428.37 0.2 424.27 0.2L424.27 0.2Q420.17 0.2 417.02-1.5 413.87-3.2 412.12-6.25 410.37-9.3 410.37-13.3L410.37-13.3Q410.37-17.3 412.12-20.33 413.87-23.35 417.02-25.05 420.17-26.75 424.27-26.75ZM424.27-22.1L424.27-22.1Q421.87-22.1 420.02-20.98 418.17-19.85 417.14-17.85 416.12-15.85 416.12-13.25L416.12-13.25Q416.12-10.6 417.14-8.6 418.17-6.6 420.02-5.48 421.87-4.35 424.27-4.35L424.27-4.35Q426.67-4.35 428.49-5.48 430.32-6.6 431.34-8.6 432.37-10.6 432.37-13.25L432.37-13.25Q432.37-15.85 431.34-17.85 430.32-19.85 428.49-20.98 426.67-22.1 424.27-22.1ZM445.22 0L445.22-28.2Q445.22-31.35 446.54-33.38 447.87-35.4 449.97-36.38 452.07-37.35 454.37-37.35L454.37-37.35Q455.57-37.35 456.79-37.02 458.02-36.7 459.07-36.15L459.07-36.15 457.87-31.75Q457.17-32.05 456.29-32.33 455.42-32.6 454.52-32.6L454.52-32.6Q453.57-32.6 452.74-32.23 451.92-31.85 451.42-31.03 450.92-30.2 450.92-28.9L450.92-28.9 450.92 0 445.22 0ZM441.72-21.5L441.72-25.6 457.87-25.6 457.87-21.5 441.72-21.5ZM504.51-29.95L501.06-25.9Q499.16-28 496.56-29.2 493.96-30.4 491.31-30.4L491.31-30.4Q488.71-30.4 486.44-29.43 484.16-28.45 482.44-26.7 480.71-24.95 479.76-22.63 478.81-20.3 478.81-17.6L478.81-17.6Q478.81-14.95 479.76-12.63 480.71-10.3 482.44-8.55 484.16-6.8 486.44-5.8 488.71-4.8 491.31-4.8L491.31-4.8Q493.96-4.8 496.51-5.93 499.06-7.05 501.06-9L501.06-9 504.56-5.35Q502.81-3.6 500.59-2.3 498.36-1 495.94-0.3 493.51 0.4 491.01 0.4L491.01 0.4Q487.16 0.4 483.86-0.98 480.56-2.35 478.09-4.8 475.61-7.25 474.21-10.53 472.81-13.8 472.81-17.55L472.81-17.55Q472.81-21.3 474.21-24.53 475.61-27.75 478.14-30.2 480.66-32.65 483.99-34 487.31-35.35 491.21-35.35L491.21-35.35Q493.71-35.35 496.11-34.7 498.51-34.05 500.66-32.85 502.81-31.65 504.51-29.95L504.51-29.95ZM521.61-26.75L521.61-26.75Q525.71-26.75 528.83-25.05 531.96-23.35 533.71-20.33 535.46-17.3 535.46-13.3L535.46-13.3Q535.46-9.3 533.71-6.25 531.96-3.2 528.83-1.5 525.71 0.2 521.61 0.2L521.61 0.2Q517.51 0.2 514.36-1.5 511.21-3.2 509.46-6.25 507.71-9.3 507.71-13.3L507.71-13.3Q507.71-17.3 509.46-20.33 511.21-23.35 514.36-25.05 517.51-26.75 521.61-26.75ZM521.61-22.1L521.61-22.1Q519.21-22.1 517.36-20.98 515.51-19.85 514.48-17.85 513.46-15.85 513.46-13.25L513.46-13.25Q513.46-10.6 514.48-8.6 515.51-6.6 517.36-5.48 519.21-4.35 521.61-4.35L521.61-4.35Q524.01-4.35 525.83-5.48 527.66-6.6 528.68-8.6 529.71-10.6 529.71-13.25L529.71-13.25Q529.71-15.85 528.68-17.85 527.66-19.85 525.83-20.98 524.01-22.1 521.61-22.1ZM560.81 0L560.81-15Q560.81-18.15 559.16-19.93 557.5-21.7 554.56-21.7L554.56-21.7Q551.11-21.6 549.13-19.15 547.16-16.7 547.16-13.1L547.16-13.1 545.56-13.1Q545.56-18 546.93-21 548.31-24 550.83-25.38 553.36-26.75 556.81-26.75L556.81-26.75Q559.86-26.75 562.03-25.5 564.21-24.25 565.38-21.98 566.56-19.7 566.56-16.5L566.56-16.5 566.56 0 560.81 0ZM580.16 0L580.16-15Q580.16-18.15 578.48-19.93 576.81-21.7 573.86-21.7L573.86-21.7Q570.46-21.6 568.5-19.15 566.56-16.7 566.56-13.1L566.56-13.1 564.91-13.1Q564.91-18 566.28-21 567.66-24 570.18-25.38 572.71-26.75 576.16-26.75L576.16-26.75Q579.21-26.75 581.38-25.5 583.56-24.25 584.73-21.98 585.91-19.7 585.91-16.5L585.91-16.5 585.91 0 580.16 0ZM541.46 0L541.46-26.55 547.16-26.55 547.16 0 541.46 0ZM612.95 0L612.95-15Q612.95-18.15 611.3-19.93 609.65-21.7 606.7-21.7L606.7-21.7Q603.25-21.6 601.28-19.15 599.3-16.7 599.3-13.1L599.3-13.1 597.7-13.1Q597.7-18 599.08-21 600.45-24 602.98-25.38 605.5-26.75 608.95-26.75L608.95-26.75Q612-26.75 614.18-25.5 616.35-24.25 617.53-21.98 618.7-19.7 618.7-16.5L618.7-16.5 618.7 0 612.95 0ZM632.3 0L632.3-15Q632.3-18.15 630.63-19.93 628.95-21.7 626-21.7L626-21.7Q622.6-21.6 620.65-19.15 618.7-16.7 618.7-13.1L618.7-13.1 617.05-13.1Q617.05-18 618.43-21 619.8-24 622.33-25.38 624.85-26.75 628.3-26.75L628.3-26.75Q631.35-26.75 633.53-25.5 635.7-24.25 636.88-21.98 638.05-19.7 638.05-16.5L638.05-16.5 638.05 0 632.3 0ZM593.6 0L593.6-26.55 599.3-26.55 599.3 0 593.6 0ZM647.9-15.2L664.15-15.2Q664.05-17.45 663.12-19.03 662.2-20.6 660.55-21.48 658.9-22.35 656.75-22.35L656.75-22.35Q654.35-22.35 652.57-21.25 650.8-20.15 649.8-18.18 648.8-16.2 648.8-13.55L648.8-13.55Q648.8-10.7 649.87-8.6 650.95-6.5 652.87-5.35 654.8-4.2 657.3-4.2L657.3-4.2Q661.75-4.2 664.8-7.35L664.8-7.35 667.85-4.3Q665.9-2.15 663.1-0.98 660.3 0.2 656.85 0.2L656.85 0.2Q652.75 0.2 649.7-1.5 646.65-3.2 644.95-6.23 643.25-9.25 643.25-13.25L643.25-13.25Q643.25-17.25 644.95-20.28 646.65-23.3 649.7-25 652.75-26.7 656.7-26.75L656.7-26.75Q661.4-26.75 664.25-24.83 667.1-22.9 668.3-19.4 669.5-15.9 669.15-11.1L669.15-11.1 647.9-11.1 647.9-15.2ZM690.1-26.75L690.1-21.55Q687.25-21.7 685.17-20.58 683.1-19.45 681.97-17.45 680.85-15.45 680.85-12.85L680.85-12.85 679.25-13.05Q679.25-17.5 680.55-20.55 681.85-23.6 684.3-25.18 686.75-26.75 690.1-26.75L690.1-26.75ZM675.15 0L675.15-26.55 680.9-26.55 680.9 0 675.15 0ZM716.74-22.65L713.59-18.95Q712.19-20.4 710.29-21.2 708.39-22 705.99-22L705.99-22Q703.69-22 701.89-20.9 700.09-19.8 699.09-17.82 698.09-15.85 698.09-13.25L698.09-13.25Q698.09-10.65 699.09-8.68 700.09-6.7 701.89-5.58 703.69-4.45 705.99-4.45L705.99-4.45Q708.49-4.45 710.49-5.28 712.49-6.1 713.84-7.7L713.84-7.7 717.04-4.55Q715.24-2.3 712.37-1.05 709.49 0.2 705.74 0.2L705.74 0.2Q701.79 0.2 698.77-1.5 695.74-3.2 694.04-6.23 692.34-9.25 692.34-13.25L692.34-13.25Q692.34-17.25 694.04-20.28 695.74-23.3 698.77-25.03 701.79-26.75 705.74-26.75L705.74-26.75Q709.34-26.75 712.12-25.68 714.89-24.6 716.74-22.65L716.74-22.65ZM725.19-15.2L741.44-15.2Q741.34-17.45 740.42-19.03 739.49-20.6 737.84-21.48 736.19-22.35 734.04-22.35L734.04-22.35Q731.64-22.35 729.87-21.25 728.09-20.15 727.09-18.18 726.09-16.2 726.09-13.55L726.09-13.55Q726.09-10.7 727.17-8.6 728.24-6.5 730.17-5.35 732.09-4.2 734.59-4.2L734.59-4.2Q739.04-4.2 742.09-7.35L742.09-7.35 745.14-4.3Q743.19-2.15 740.39-0.98 737.59 0.2 734.14 0.2L734.14 0.2Q730.04 0.2 726.99-1.5 723.94-3.2 722.24-6.23 720.54-9.25 720.54-13.25L720.54-13.25Q720.54-17.25 722.24-20.28 723.94-23.3 726.99-25 730.04-26.7 733.99-26.75L733.99-26.75Q738.69-26.75 741.54-24.83 744.39-22.9 745.59-19.4 746.79-15.9 746.44-11.1L746.44-11.1 725.19-11.1 725.19-15.2Z" opacity="1" transform="matrix(1,0,0,1,0,0)" fill="#03045e" class="wordmark-text-0" data-fill-palette-color="primary" id="text-0"></path></svg></g></svg></g></svg></g></svg></g><g transform="matrix(1,0,0,1,175.15153154452054,0)"><svg viewBox="0 0 45.2169369109589 40.04185087706452" height="40.04185087706452" width="45.2169369109589"><g><svg xmlns="http://www.w3.org/2000/svg" xmlns:xlink="http://www.w3.org/1999/xlink" version="1.1" x="8" y="0" viewBox="13.517 0 72.96600000000001 100" enable-background="new 0 0 100 100" xml:space="preserve" height="40.04185087706452" width="29.2169369109589" class="icon-icon-0" data-fill-palette-color="accent" id="icon-0"><path d="M86.482 12.673H84.643C65.678 12.673 51.353 1.108 51.208 0.991L50.966 0.793 50.003 0 50.001 0.002 49.997 0 49.035 0.793 48.791 0.991C48.647 1.108 34.322 12.673 15.357 12.673H13.517V60.231H13.519C13.519 88.247 49.642 99.887 49.997 100 50.354 99.888 86.482 88.247 86.482 60.231H86.483zM48.243 15H52.208C55.766 16.064 57.292 20.911 55.238 23.925 54.388 25.049 53.244 25.972 51.856 26.311 51.655 27.181 51.754 28.07 52.001 28.92 57.605 29.007 63.21 28.966 68.814 29.079 68.895 30.212 69.019 31.343 69.056 32.478 63.709 33.012 58.344 33.404 52.995 33.965 52.744 34.002 52.227 33.935 52.341 34.361 52.762 44.548 53.128 54.74 53.543 64.928 53.73 67.254 53.272 69.671 54.065 71.919 54.357 72.755 54.993 73.678 55.967 73.71 58.092 73.825 60.024 72.745 61.797 71.704 64.042 70.267 66.181 68.642 68.092 66.784 67.105 66.218 65.953 66.072 64.91 65.643 65.294 65.16 65.838 64.851 66.316 64.474 68.564 62.763 70.816 61.013 72.663 58.86 73.294 58.149 73.782 57.327 74.406 56.611V67.376C73.809 70.442 72.886 73.613 70.8 76.022 70.625 74.021 70.437 72.015 70.038 70.046 68.514 71.43 67.247 73.085 65.702 74.453 63.973 76.103 62.011 77.575 59.733 78.377 56.212 79.724 52.604 81.64 50.635 84.999H50.262C49.574 83.937 48.758 82.947 47.732 82.199 44.826 80.057 41.134 79.344 38.252 77.161 35.279 75.224 33.027 72.44 30.44 70.057 29.943 71.992 30.143 74.018 29.779 75.966 26.843 72.429 25.899 67.711 25.591 63.243V58.862C25.713 58.267 25.722 57.662 25.757 57.061 25.971 57.206 26.155 57.378 26.312 57.581 28.366 60.292 31.115 62.369 33.915 64.255 34.459 64.637 35.068 64.934 35.545 65.408 34.682 65.859 33.761 66.179 32.84 66.481 32.433 66.532 32.409 67.082 32.752 67.241 35.37 69.422 38.081 71.556 41.136 73.096 42.497 73.423 44.084 74.102 45.392 73.262 46.681 72.518 47.117 70.973 47.293 69.591 47.581 67.291 47.565 64.965 47.727 62.653 47.997 53.138 48.324 43.624 48.56 34.107 43.674 33.594 38.779 33.14 33.89 32.636 33.142 32.539 32.37 32.569 31.652 32.325 31.837 31.257 31.972 30.177 32.115 29.101 34.469 29.113 36.822 29.115 39.176 29.103 42.383 28.946 45.6 29.14 48.808 28.99A3.55 3.55 0 0 0 49.026 26.333C47.205 25.921 45.619 24.641 44.813 22.962 44.233 21.336 44.247 19.446 45.043 17.892 45.647 16.524 46.914 15.601 48.243 15M48.331 18.147C46.6 19.462 46.885 22.585 48.86 23.512 49.077 22.626 48.551 21.59 49.13 20.802 49.583 20.173 50.419 20.394 51.077 20.39 52.074 21.115 51.764 22.451 51.851 23.508 53.248 22.845 53.801 21.097 53.416 19.665 52.947 17.528 49.924 16.792 48.331 18.147" fill="#03045e" data-fill-palette-color="accent"></path></svg></g></svg></g><g><rect width="175.15153154452054" height="1.9354748540943254" y="37.106376022970196" x="220.36846845547944" fill="#03045e" data-fill-palette-color="accent"></rect><rect width="175.15153154452054" height="1.9354748540943254" y="37.106376022970196" x="0" fill="#03045e" data-fill-palette-color="accent"></rect><rect width="175.15153154452054" height="1.9354748540943254" y="33.23542631478154" x="220.36846845547944" fill="#03045e" data-fill-palette-color="accent"></rect><rect width="175.15153154452054" height="1.9354748540943254" y="33.23542631478154" x="0" fill="#03045e" data-fill-palette-color="accent"></rect></g></svg></g><defs></defs></svg><rect width="395.52" height="66.5706448228856" fill="none" stroke="none" visibility="hidden"></rect></g></svg></g></svg>